<?xml version="1.0" standalone="no"?>
<!DOCTYPE svg PUBLIC "-//W3C//DTD SVG 20010904//EN"
 "http://www.w3.org/TR/2001/REC-SVG-20010904/DTD/svg10.dtd">
<svg version="1.0" xmlns="http://www.w3.org/2000/svg"
 width="500.000000pt" height="159.000000pt" viewBox="0 0 500.000000 159.000000"
 preserveAspectRatio="xMidYMid meet">

<g transform="translate(0.000000,159.000000) scale(0.100000,-0.100000)"
fill="#000000" stroke="none">
<path d="M139 1184 c20 -26 21 -38 21 -391 0 -307 -2 -369 -15 -393 l-16 -30
71 0 71 0 -15 22 c-13 19 -16 57 -16 220 l0 198 275 0 275 0 0 -198 c0 -163
-3 -201 -16 -220 l-15 -22 71 0 71 0 -15 22 c-14 19 -16 74 -16 394 0 360 1
372 21 398 l20 26 -81 0 -81 0 20 -26 c19 -25 21 -40 21 -195 l0 -169 -275 0
-275 0 0 169 c0 155 2 170 21 195 l20 26 -81 0 -81 0 20 -26z"/>
<path d="M3852 1120 c-5 -78 -44 -130 -111 -151 -23 -6 -22 -7 12 -8 l37 -1 0
-232 c0 -128 5 -249 10 -269 5 -19 23 -48 40 -64 26 -25 39 -29 92 -31 35 -2
52 -1 38 2 -46 9 -81 27 -93 48 -8 15 -14 126 -17 381 -3 198 -7 344 -8 325z"/>
<path d="M3427 1089 c-21 -12 -22 -33 -1 -53 19 -20 54 -5 54 24 0 25 -30 41
-53 29z m27 -41 c-9 -14 -23 2 -17 18 4 12 8 13 14 3 4 -7 5 -17 3 -21z"/>
<path d="M1302 957 c-43 -14 -128 -90 -152 -136 -41 -82 -44 -203 -7 -293 23
-54 86 -118 142 -144 56 -26 97 -32 50 -7 -108 56 -165 197 -144 351 15 107
71 192 149 226 41 18 14 20 -38 3z"/>
<path d="M1505 951 c54 -24 98 -77 125 -148 18 -49 21 -73 18 -153 -6 -141
-50 -225 -143 -273 -47 -25 -6 -19 50 7 176 82 225 341 92 492 -41 46 -123 94
-162 94 -13 0 -6 -7 20 -19z"/>
<path d="M1985 953 c-101 -53 -122 -154 -47 -226 16 -15 70 -41 132 -62 179
-63 225 -96 225 -165 0 -50 -28 -88 -85 -117 -50 -26 -29 -31 28 -8 72 31 112
86 112 156 0 87 -58 134 -237 193 -97 32 -143 61 -162 101 -12 26 -12 33 5 65
12 22 35 43 64 58 36 18 40 22 20 22 -14 -1 -38 -8 -55 -17z"/>
<path d="M2790 950 c-24 -12 -59 -32 -77 -46 l-33 -25 0 40 c0 40 -1 41 -32
40 -18 0 -41 -4 -51 -8 -17 -6 -17 -8 -3 -20 14 -12 16 -60 16 -416 0 -392 -1
-403 -21 -429 l-20 -26 71 0 71 0 -15 22 c-13 18 -16 54 -16 182 0 151 1 158
18 144 34 -30 46 -30 15 0 l-33 31 0 208 0 209 33 31 c105 100 256 89 328 -25
38 -60 50 -107 51 -197 0 -142 -53 -242 -156 -292 l-51 -25 40 7 c151 23 245
144 245 315 0 126 -44 212 -137 267 -64 37 -178 43 -243 13z"/>
<path d="M4400 949 c-58 -26 -105 -72 -138 -134 -24 -45 -27 -61 -27 -150 0
-85 3 -106 23 -142 35 -66 82 -114 137 -139 64 -30 92 -31 41 -1 -85 48 -136
153 -136 280 0 135 51 240 140 285 56 28 22 29 -40 1z"/>
<path d="M4616 951 c95 -43 146 -141 148 -281 1 -137 -49 -239 -143 -291 -35
-19 -35 -20 -6 -14 80 17 154 79 194 165 20 44 25 70 26 135 0 71 -4 88 -32
146 -36 72 -88 121 -154 144 -59 21 -82 18 -33 -4z"/>
<path d="M3422 953 c-20 -4 -21 -7 -10 -20 10 -12 13 -75 13 -269 l0 -252 -24
-26 -24 -26 76 0 c42 0 77 3 77 7 0 3 -8 15 -17 26 -16 17 -18 49 -21 293 l-3
274 -22 -1 c-12 -1 -32 -4 -45 -6z"/>
<path d="M2266 927 c3 -8 -2 -17 -10 -20 -19 -7 -21 -48 -4 -65 19 -19 56 -14
68 8 15 29 5 53 -30 73 -23 14 -28 15 -24 4z"/>
<path d="M1880 435 c0 -6 90 -58 95 -54 2 2 -19 16 -46 32 -27 15 -49 25 -49
22z"/>
<path d="M2098 353 c12 -2 30 -2 40 0 9 3 -1 5 -23 4 -22 0 -30 -2 -17 -4z"/>
</g>
</svg>
