<svg xmlns="http://www.w3.org/2000/svg"
viewBox="0 0 1200 900">
<path
d="M 1188.91 552.73 a 241.36 241.36 0 0 1 -7.07 58.24 q -2.38 9.62 -5.53 18.86 a 224.65 224.65 0 0 1 -8.92 22.32 q -2.55 5.51 -5.39 10.82 a 145.59 145.59 0 0 1 -12.17 58.49 a 150.86 150.86 0 0 1 -73.18 75.4 a 154 154 0 0 1 -65.41 15 H 234.68 a 195.67 195.67 0 0 1 -98.42 -26.3 q -6.63 -3.84 -12.92 -8.18 a 195.41 195.41 0 0 1 -25.57 -21.08 a 190.28 190.28 0 0 1 -28.11 -34.87 a 185.86 185.86 0 0 1 -28.59 -99.23 c -18.95 -33.25 -30 -73.08 -30 -115.88 c 0 -54 17.56 -103.26 46.41 -140.55 a 197.6 197.6 0 0 1 19.71 -21.93 a 183.42 183.42 0 0 1 22.54 -18.45 a 173.94 173.94 0 0 1 20 -12 c 2.89 -1.48 5.79 -2.86 8.74 -4.15 c 2.59 -1.15 5.21 -2.22 7.86 -3.23 q 4.77 -1.82 9.66 -3.33 t 9.65 -2.66 q 7 -1.71 14.24 -2.78 c 4 -0.59 8 -1 12 -1.32 q 4.77 -0.34 9.62 -0.4 h 1.75 c 3.56 0 7.1 0.14 10.61 0.38 c 0.37 -0.74 0.77 -1.49 1.14 -2.23 c 1.4 -2.66 2.85 -5.32 4.31 -7.93 l 0 -0.07 c 0.25 -0.45 0.5 -0.9 0.76 -1.34 c 1.18 -2.13 2.41 -4.24 3.67 -6.33 c 0.58 -1 1.15 -1.94 1.74 -2.89 c 0.13 -0.23 0.26 -0.45 0.41 -0.68 c 0.6 -1 1.21 -2 1.83 -3 q 4.63 -7.39 9.63 -14.55 c 0.29 -0.41 0.56 -0.81 0.85 -1.21 c 0.52 -0.74 1 -1.47 1.58 -2.2 c 1.38 -1.93 2.8 -3.87 4.23 -5.78 c 1 -1.35 2 -2.7 3.08 -4 c 2.6 -3.36 5.27 -6.7 8 -10 s 5.61 -6.62 8.52 -9.87 c 0.4 -0.45 0.8 -0.89 1.22 -1.34 l 4.27 -4.65 h 0 c 0.21 -0.22 0.39 -0.42 0.59 -0.62 h 0 c 0.51 -0.55 1 -1.1 1.55 -1.64 c 2.29 -2.42 4.64 -4.81 7 -7.17 A 381.2 381.2 0 0 1 306.68 175 c 0.53 -0.42 1.07 -0.82 1.6 -1.22 c 2.54 -1.92 5.12 -3.81 7.7 -5.67 a 406.84 406.84 0 0 1 44.41 -27.7 c 1.06 -0.6 2.14 -1.17 3.23 -1.74 a 426.26 426.26 0 0 1 42.49 -19.56 q 11.86 -4.69 24.14 -8.76 c 5.42 -1.77 10.86 -3.46 16.37 -5 q 12.78 -3.67 25.88 -6.62 a 463.35 463.35 0 0 1 78.24 -10.66 q 12 -0.63 24.27 -0.63 a 465 465 0 0 1 117 14.8 a 4.22 4.22 0 0 0 3.63 1.89 H 699 c 1.46 0.39 2.91 0.8 4.37 1.22 q 12.23 3.53 24.11 7.69 l 2 0.72 a 430.4 430.4 0 0 1 56.91 25 a 412.06 412.06 0 0 1 47.65 29.44 q 3.51 2.52 6.92 5.09 q 4.14 -2.67 8.42 -5.09 a 165.59 165.59 0 0 1 34.88 -14.86 a 159.1 159.1 0 0 1 78.24 -3.06 c 33.25 7.05 63.35 24.55 87.66 49.44 A 204.55 204.55 0 0 1 1076.48 233 c 0.55 0.86 1.1 1.73 1.63 2.61 A 220 220 0 0 1 1094.85 269 c 0.17 0.42 0.34 0.83 0.49 1.25 a 231.09 231.09 0 0 1 10.3 33.35 c 0.12 0.57 0.26 1.15 0.38 1.73 a 240.11 240.11 0 0 1 4.92 33.37 c 0 0.4 0 0.81 0.08 1.22 q 0.63 8.71 0.64 17.61 c 0 5.3 -0.18 10.56 -0.51 15.77 c 0 0.57 -0.08 1.17 -0.13 1.75 c -0.09 1.52 -0.22 3 -0.35 4.53 a 189.7 189.7 0 0 1 21.38 20.16 q 4.37 4.77 8.46 9.91 a 210.16 210.16 0 0 1 21.8 33.37 C 1179.19 475 1188.91 512.54 1188.91 552.73 Z"
transform="translate(-11.09, -87.42)"
fill="rgb(0, 0, 0)"
opacity="0.1"/>
</svg>